# xmcd
#
# Track frame offsets:
# 150
# 11630
# 28255
# 45435
# 59198
# 76550
# 92874
# 107129
# 123308
# 140063
# 157350
# 172110
# 187771
# 199718
# 218882
# 240966
#
# Disc length: 3449 seconds
#
# Revision: 1
# Processed by: cddbd v1.5.2PL0 Copyright (c) Steve Scherf et al.
# Submitted via: Audion 3.0.2 (http://www.panic.com/audion/)
#
DISCID=df0d7710
DTITLE=M - Qui de nous deux
DYEAR=2003
DGENRE=Rock Funk
TTITLE0=Mon Ego
TTITLE1=La Bonne Etoile
TTITLE2=Sous Ta Peau
TTITLE3=A tes Souhaits
TTITLE4=Qui de Nous Deux
TTITLE5=Ma Melodie
TTITLE6=Quand Je vais Chez Elle
TTITLE7=La Corde Sensible
TTITLE8=Je Me Demasque
TTITLE9=C'est Pas Ta Faute
TTITLE10=Gimmick
TTITLE11=Le radeau
TTITLE12=Psycho Bug
TTITLE13=Peau de Fleur
TTITLE14=Ton Echo
TTITLE15=Je Dis Aime
EXTD=
EXTT0=
EXTT1=
EXTT2=
EXTT3=
EXTT4=
EXTT5=
EXTT6=
EXTT7=
EXTT8=
EXTT9=
EXTT10=
EXTT11=
EXTT12=
EXTT13=
EXTT14=
EXTT15=
PLAYORDER=
